<svg width="18" height="16" viewBox="0 0 18 16" fill="none" xmlns="http://www.w3.org/2000/svg">
<path d="M16.1497 4.33383C16.1612 4.49373 16.1612 4.65363 16.1612 4.81353C16.1612 9.69043 12.4492 15.3097 5.665 15.3097C3.5749 15.3097 1.6333 14.7043 0 13.6536C0.29696 13.6878 0.58247 13.6993 0.89086 13.6993C2.6154 13.6993 4.203 13.1168 5.4708 12.1231C3.849 12.0889 2.4898 11.0267 2.0216 9.56473C2.25 9.59903 2.4784 9.62183 2.7183 9.62183C3.0495 9.62183 3.3807 9.57613 3.6891 9.49623C1.9987 9.15353 0.73093 7.66883 0.73093 5.87573V5.83003C1.222 6.10413 1.7931 6.27543 2.3984 6.29823C1.4048 5.63583 0.75379 4.50513 0.75379 3.22593C0.75379 2.54063 0.93649 1.91253 1.2563 1.36423C3.0723 3.60283 5.802 5.06473 8.8629 5.22463C8.8058 4.95053 8.7715 4.66503 8.7715 4.37953C8.7715 2.34653 10.4162 0.69043 12.4606 0.69043C13.5228 0.69043 14.4822 1.13583 15.156 1.85543C15.9898 1.69553 16.7893 1.38713 17.4974 0.96453C17.2233 1.82113 16.6408 2.54073 15.8756 2.99753C16.618 2.91763 17.3375 2.71193 17.9999 2.42643C17.4975 3.15743 16.8693 3.80843 16.1497 4.33383Z" fill="black"/>
</svg>
